HIERARCHY
ROOT Hips
{
	OFFSET -30.366390 91.414970 263.936096
	CHANNELS 6 Xposition Yposition Zposition Zrotation Yrotation Xrotation 
	JOINT LeftUpLeg
	{
		OFFSET 0.103456 1.857826 10.548504
		CHANNELS 3 Zrotation Yrotation Xrotation
		JOINT LeftLeg
		{
			OFFSET 43.499996 -0.000038 0.000006
			CHANNELS 3 Zrotation Yrotation Xrotation
			JOINT LeftFoot
			{
				OFFSET 42.372192 0.000011 -0.000004
				CHANNELS 3 Zrotation Yrotation Xrotation
				JOINT LeftToe
				{
					OFFSET 17.300018 0.000006 0.000004
					CHANNELS 3 Zrotation Yrotation Xrotation
					End Site
					{
						OFFSET 0.000000 0.000000 0.000000
					}
				}
			}
		}
	}
	JOINT RightUpLeg
	{
		OFFSET 0.103455 1.857819 -10.548502
		CHANNELS 3 Zrotation Yrotation Xrotation
		JOINT RightLeg
		{
			OFFSET 43.500038 -0.000031 0.000011
			CHANNELS 3 Zrotation Yrotation Xrotation
			JOINT RightFoot
			{
				OFFSET 42.372261 -0.000008 0.000014
				CHANNELS 3 Zrotation Yrotation Xrotation
				JOINT RightToe
				{
					OFFSET 17.299999 -0.000004 0.000004
					CHANNELS 3 Zrotation Yrotation Xrotation
					End Site
					{
						OFFSET 0.000000 0.000000 0.000000
					}
				}
			}
		}
	}
	JOINT Spine
	{
		OFFSET 6.901965 -2.603737 -0.000000
		CHANNELS 3 Zrotation Yrotation Xrotation
		JOINT Spine1
		{
			OFFSET 12.588105 0.000013 0.000001
			CHANNELS 3 Zrotation Yrotation Xrotation
			JOINT Spine2
			{
				OFFSET 12.343203 0.000010 -0.000000
				CHANNELS 3 Zrotation Yrotation Xrotation
				JOINT Neck
				{
					OFFSET 25.832893 -0.000038 0.000001
					CHANNELS 3 Zrotation Yrotation Xrotation
					JOINT Head
					{
						OFFSET 11.766606 0.000028 0.000001
						CHANNELS 3 Zrotation Yrotation Xrotation
						End Site
						{
							OFFSET 0.000000 0.000000 0.000000
						}
					}
				}
				JOINT LeftShoulder
				{
					OFFSET 19.745897 -1.480375 6.000107
					CHANNELS 3 Zrotation Yrotation Xrotation
					JOINT LeftArm
					{
						OFFSET 11.284126 -0.000009 -0.000017
						CHANNELS 3 Zrotation Yrotation Xrotation
						JOINT LeftForeArm
						{
							OFFSET 33.000046 0.000006 0.000030
							CHANNELS 3 Zrotation Yrotation Xrotation
							JOINT LeftHand
							{
								OFFSET 25.200006 0.000034 0.000015
								CHANNELS 3 Zrotation Yrotation Xrotation
								End Site
								{
									OFFSET 0.000000 0.000000 0.000000
								}
							}
						}
					}
				}
				JOINT RightShoulder
				{
					OFFSET 19.746096 -1.480394 -6.000075
					CHANNELS 3 Zrotation Yrotation Xrotation
					JOINT RightArm
					{
						OFFSET 11.284135 -0.000006 -0.000006
						CHANNELS 3 Zrotation Yrotation Xrotation
						JOINT RightForeArm
						{
							OFFSET 33.000095 0.000018 0.000006
							CHANNELS 3 Zrotation Yrotation Xrotation
							JOINT RightHand
							{
								OFFSET 25.199783 0.000116 0.000436
								CHANNELS 3 Zrotation Yrotation Xrotation
								End Site
								{
									OFFSET 0.000000 0.000000 0.000000
								}
							}
						}
					}
				}
			}
		}
	}
}
MOTION
Frames: 12
Frame Time: 0.033333
120.792702 89.917282 -205.317703 87.238803 7.137128 68.429384 -170.859573 2.943302 173.760559 -24.283259 -2.618572 -2.144601 94.247513 1.988194 4.177838 21.454551 0.003084 -0.000000 156.492078 3.658289 178.646726 -34.903329 4.051874 12.207416 73.066147 -6.340413 8.780533 21.454562 -0.003112 -0.000018 8.862232 -0.261237 -0.564281 7.714117 -0.484392 -1.144667 7.396069 -0.491165 -1.141726 -11.738167 4.217791 2.699387 -7.109576 -1.654986 4.662213 176.232514 -75.346706 2.468694 -27.362878 49.098128 3.901893 -65.039971 -14.808052 2.278482 3.956214 -15.471743 10.454769 147.950312 72.222174 -31.583379 4.251302 -54.285964 -36.865591 -39.702869 14.714814 -1.459275 15.515705 -1.754847 -28.940352 
118.875801 89.495987 -201.698700 87.517311 6.968287 69.879221 -167.792107 2.195802 174.045282 -22.968625 -2.906585 -1.265742 94.993301 1.329639 3.693629 21.454553 0.003097 0.000000 157.578830 3.673206 178.580897 -22.449056 4.352153 13.721631 72.869827 -6.775749 11.150440 21.454558 -0.003102 -0.000014 8.825795 -0.169140 -0.878426 7.640927 -0.280074 -1.766065 7.322978 -0.290593 -1.764332 -12.067197 4.627964 2.528847 -7.096256 -1.880875 4.723919 175.514210 -75.918201 3.187903 -28.456412 47.982994 -0.288339 -68.900127 -13.592528 2.349020 3.586119 -15.605956 10.754290 149.248608 72.105426 -30.265132 6.530418 -54.903571 -39.179246 -39.148414 14.519018 -1.432132 15.726908 -2.259666 -29.345915 
116.897102 88.662216 -197.981903 87.994980 7.201065 71.390380 -165.126353 1.584501 173.752171 -23.217454 -2.803538 -0.027530 96.248007 0.403153 3.093786 21.454555 0.003090 -0.000000 158.323443 3.961198 -179.937673 -15.275675 4.247553 13.489624 74.596901 -6.063590 13.792461 21.454553 -0.003100 -0.000015 8.851491 -0.146456 -1.184804 7.692375 -0.214023 -2.376702 7.374577 -0.228227 -2.375353 -12.249101 5.055268 2.296518 -7.183560 -2.098122 4.729891 174.627692 -76.335813 4.081970 -29.131600 46.921668 -3.324576 -71.295086 -12.713365 2.386218 3.303337 -15.817379 10.647526 150.360809 72.031913 -29.133226 8.750884 -55.275194 -41.248520 -38.916382 14.340950 -1.414565 15.916844 -2.808336 -29.558614 
114.980598 87.996986 -194.514099 87.960761 7.246861 72.796388 -163.431660 0.651995 173.469866 -24.804956 -2.045791 0.840247 96.747779 -0.261453 2.490984 21.454550 0.003083 0.000000 158.440704 3.715196 -176.584309 -15.626913 3.891980 12.950284 74.853334 -6.123825 12.159731 21.454555 -0.003103 -0.000014 8.881525 -0.022093 -1.401379 7.749623 0.049496 -2.801053 7.431937 0.032733 -2.801298 -12.375382 5.416429 1.992212 -7.126645 -2.261826 4.621573 173.956886 -76.607402 4.758992 -29.577438 46.166526 -4.994737 -72.220651 -12.372025 2.400860 2.978045 -16.166549 10.589309 151.353700 72.028518 -28.118116 10.437384 -55.571368 -42.761537 -38.711661 14.206410 -1.400573 16.058736 -3.214936 -29.319984 
112.959297 87.421623 -191.000504 87.342847 7.247501 74.107423 -162.458795 -0.827898 172.778774 -27.973632 -0.748160 1.589502 96.375076 -0.848459 1.858014 21.454551 0.003085 -0.000002 158.312105 2.975098 -173.290819 -20.354944 3.676692 12.461326 71.265026 -6.596385 8.292347 21.454560 -0.003111 -0.000019 8.895247 0.227235 -1.512412 7.770461 0.555279 -3.006182 7.452811 0.537263 -3.009478 -12.359133 5.571697 1.628744 -6.897176 -2.372792 4.351966 173.638203 -76.588407 5.085094 -29.513661 45.833107 -4.874422 -71.754293 -12.604985 2.397682 2.820017 -16.551606 10.663554 152.528602 72.044460 -26.915216 11.789389 -55.743605 -43.990390 -38.166383 14.132582 -1.382015 16.085714 -3.320830 -28.721994 
110.758698 87.430946 -187.557007 85.293845 6.979500 75.279729 -162.777273 -4.285793 171.078002 -33.222788 0.662682 2.801198 93.236351 -1.762696 1.164346 21.454550 0.003096 0.000003 159.540091 0.381003 -171.621972 -22.678824 3.650115 12.750115 70.223340 -8.711628 1.943382 21.454557 -0.003105 -0.000016 8.906644 0.797549 -1.486850 7.779717 1.693001 -2.917078 7.461918 1.675498 -2.927224 -12.026729 5.493806 1.242758 -6.718806 -2.600965 3.989485 173.732200 -76.149786 5.002686 -28.927477 46.107602 -3.085309 -70.007991 -13.319198 2.375284 3.033493 -16.779471 10.778159 153.887318 71.940149 -25.531198 12.243439 -55.693660 -44.541610 -36.960350 14.117053 -1.351269 16.074456 -3.130406 -27.773993 
108.365799 87.598778 -184.065598 82.802718 6.670900 76.432993 -165.404902 -8.794292 168.992691 -41.796229 2.392574 4.023093 86.022647 -2.658730 0.923184 21.454553 0.003098 0.000000 161.014647 -2.678093 -170.935606 -25.066239 3.889398 13.594115 71.992537 -10.155976 -0.943839 21.454558 -0.003105 -0.000017 8.903225 1.497011 -1.419677 7.759529 3.085573 -2.736852 7.441330 3.069136 -2.755420 -11.551934 5.307200 0.866240 -6.610348 -3.057045 3.650925 174.157967 -75.535820 4.586198 -27.870829 47.153714 -0.115062 -67.122960 -14.297347 2.326024 3.646887 -16.873282 10.946906 154.777114 71.738747 -24.632399 11.687336 -55.357799 -44.292803 -35.165362 14.208675 -1.314781 16.271302 -3.007756 -26.748452 
106.072899 87.957031 -180.581696 80.846367 6.513753 77.806216 -170.176745 -13.257006 168.611074 -52.602237 4.335204 4.981197 76.886142 -4.217262 -2.021086 21.454550 0.003088 -0.000002 163.140626 -4.875110 -169.497797 -26.632986 4.249020 13.961744 75.019116 -10.237526 -0.661944 21.454557 -0.003100 -0.000015 8.918404 2.094250 -1.409486 7.779287 4.278214 -2.676959 7.460607 4.262113 -2.702759 -11.380945 5.179927 0.440222 -6.387439 -3.533735 3.300823 174.446406 -75.179920 4.301826 -26.616240 48.886184 3.526967 -63.354437 -15.234167 2.241929 4.715339 -16.929268 10.924798 154.889894 71.566463 -24.527348 9.932713 -54.959694 -42.657298 -33.417674 14.506581 -1.294816 16.822461 -3.303717 -26.425809 
104.038498 88.752487 -176.995605 80.310471 6.845955 79.259701 -176.362861 -15.657912 170.354740 -63.377127 5.794577 4.463692 67.945813 -5.026758 -4.366679 21.454545 0.003089 0.000003 166.662449 -5.848306 -167.924272 -25.951348 4.324827 13.836439 77.350157 -10.039638 -0.527476 21.454558 -0.003112 -0.000018 8.989610 2.316671 -1.432346 7.917192 4.725587 -2.705174 7.598315 4.709302 -2.733681 -11.563774 5.144937 -0.152059 -6.177074 -3.654372 2.745692 174.364102 -75.116009 4.388013 -25.317117 50.567138 8.088477 -58.885233 -15.904258 2.118627 6.183380 -16.611174 10.083488 154.935929 71.311608 -24.495686 7.298283 -54.590454 -39.299235 -32.433505 15.014757 -1.306364 17.422354 -3.659791 -27.102148 
102.451401 89.560608 -173.669205 80.537042 7.317825 80.369634 178.251914 -15.620808 172.354100 -70.997788 6.437328 0.223275 65.407353 -3.978950 -9.215125 21.454551 0.003098 0.000003 170.279922 -6.386394 -167.907920 -24.347831 4.331441 14.233879 78.906799 -10.166790 -0.095091 21.454558 -0.003108 -0.000017 9.099543 2.275590 -1.342993 8.141699 4.639753 -2.524632 7.822796 4.624568 -2.552637 -11.607804 5.002169 -0.890959 -6.307461 -3.280178 1.884470 174.423811 -74.977684 4.331107 -24.111881 51.400039 13.776561 -53.718024 -16.195565 1.954083 7.567784 -15.242260 8.363283 155.386107 70.858158 -24.061650 4.455359 -54.112946 -34.758778 -32.413721 15.591619 -1.343051 17.519700 -3.140515 -27.622511 
101.311501 90.276123 -170.448303 81.332315 7.669974 80.495118 173.596279 -13.979703 172.908588 -75.290063 6.268702 -4.460995 69.320478 0.549497 -7.073659 21.454545 0.003089 0.000006 173.511995 -6.453701 -169.763450 -22.724557 4.402987 15.067838 80.111501 -10.563711 0.561662 21.454555 -0.003110 -0.000017 9.170455 2.044900 -1.042311 8.298276 4.159042 -1.936595 7.979479 4.147423 -1.961697 -11.226417 4.560653 -1.584782 -6.621688 -2.678156 0.878756 175.192699 -74.614721 3.554071 -22.683745 51.804922 19.970133 -48.139655 -16.011331 1.758482 8.387538 -12.719557 6.844576 155.474189 70.557418 -23.989509 2.086896 -53.692469 -30.315453 -33.266867 16.147932 -1.397245 16.965085 -1.319014 -26.682634 
100.523499 90.883400 -167.255905 82.285734 7.672872 79.862977 169.252593 -12.361213 172.471210 -76.628043 5.742225 -6.847700 72.904968 3.726512 -3.065198 21.454550 0.003095 0.000002 176.145019 -6.082701 -171.908457 -21.477656 4.469413 15.610220 81.094693 -10.757734 1.282495 21.454558 -0.003107 -0.000017 9.158496 1.771076 -0.628785 8.290472 3.582471 -1.129690 7.971777 3.575733 -1.151313 -10.793355 3.938027 -2.097229 -6.608188 -2.218641 0.009041 176.507811 -74.228597 2.216802 -20.359144 52.635900 25.546408 -42.966633 -15.391963 1.563919 8.946715 -9.894957 6.425223 154.531705 70.837695 -24.939271 0.327582 -53.506988 -26.734380 -35.211435 16.673516 -1.475135 16.185002 1.194159 -24.729555 
